<mxfile host="drawio-plugin" modified="2023-12-31T07:53:26.057Z" agent="5.0 (Windows NT 6.2; Win64; x64) AppleWebKit/537.36 (KHTML, like Gecko) Chrome/104.0.5112.102 Safari/537.36" etag="ZKHBIy7vJadds3rDc6H3" version="20.5.3" type="embed"><diagram id="3Blw2JXgEVKAdZqf9iE4" name="Страница — 1"><mxGraphModel dx="898" dy="833" grid="1" gridSize="10" guides="1" tooltips="1" connect="1" arrows="1" fold="1" page="0" pageScale="1" pageWidth="827" pageHeight="1169" background="none" math="0" shadow="0"><root><mxCell id="0"/><mxCell id="1" parent="0"/><mxCell id="node1" value="&lt;p style=&quot;margin:0px;margin-top:4px;text-align:center;&quot;&gt;&lt;b&gt;Alex&lt;/b&gt;&lt;/p&gt;&lt;hr size=&quot;1&quot;/&gt;&lt;p style=&quot;margin:0 0 0 4px;line-height:1.6;&quot;&gt;- age: int&lt;/p&gt;" style="verticalAlign=top;align=left;overflow=fill;fontSize=14;fontFamily=Helvetica;html=1;rounded=0;shadow=0;comic=0;labelBackgroundColor=none;strokeWidth=1;fillColor=#B3B3B3;" parent="1" vertex="1"><mxGeometry x="110" y="80" width="180" height="65" as="geometry"/></mxCell><mxCell id="node2" value="&lt;p style=&quot;margin:0px;margin-top:4px;text-align:center;&quot;&gt;&lt;i&gt;&amp;lt;&amp;lt;interface&amp;gt;&amp;gt;&lt;/i&gt;&lt;br/&gt;&lt;b&gt;Person&lt;/b&gt;&lt;/p&gt;&lt;hr size=&quot;1&quot;/&gt;" style="verticalAlign=top;align=left;overflow=fill;fontSize=14;fontFamily=Helvetica;html=1;rounded=0;shadow=0;comic=0;labelBackgroundColor=none;strokeWidth=1;fillColor=#B3B3B3;" parent="1" vertex="1"><mxGeometry x="25" y="-15" width="245" height="39" as="geometry"/></mxCell><mxCell id="node0" value="&lt;p style=&quot;margin:0px;margin-top:4px;text-align:center;&quot;&gt;&lt;b&gt;Vasyl&lt;/b&gt;&lt;/p&gt;&lt;hr size=&quot;1&quot;/&gt;&lt;p style=&quot;margin:0 0 0 4px;line-height:1.6;&quot;&gt;- age: int&lt;/p&gt;" style="verticalAlign=top;align=left;overflow=fill;fontSize=14;fontFamily=Helvetica;html=1;rounded=0;shadow=0;comic=0;labelBackgroundColor=none;strokeWidth=1;fillColor=#B3B3B3;" parent="1" vertex="1"><mxGeometry x="-100" y="79" width="149" height="65" as="geometry"/></mxCell><mxCell id="edge0" value="" style="html=1;rounded=1;edgeStyle=orthogonalEdgeStyle;dashed=1;startArrow=none;endArrow=block;endSize=12;strokeColor=#008200;exitX=0.000;exitY=0.500;exitDx=0;exitDy=0;entryX=0.143;entryY=1.001;entryDx=0;entryDy=0;" parent="1" source="node1" target="node2" edge="1"><mxGeometry width="50" height="50" relative="1" as="geometry"><Array as="points"><mxPoint x="80" y="110"/><mxPoint x="80" y="62"/><mxPoint x="42" y="62"/></Array></mxGeometry></mxCell><mxCell id="edge1" value="" style="html=1;rounded=1;edgeStyle=orthogonalEdgeStyle;dashed=1;startArrow=none;endArrow=block;endSize=12;strokeColor=#008200;exitX=1.000;exitY=0.500;exitDx=0;exitDy=0;entryX=0.143;entryY=1.001;entryDx=0;entryDy=0;" parent="1" source="node0" target="node2" edge="1"><mxGeometry width="50" height="50" relative="1" as="geometry"><Array as="points"><mxPoint x="80" y="109"/><mxPoint x="80" y="62"/><mxPoint x="42" y="62"/></Array></mxGeometry></mxCell><mxCell id="zhIedjfmJsOqNazhnCIG-1" value="&lt;font color=&quot;#ffffff&quot; style=&quot;font-size: 21px;&quot;&gt;i&lt;/font&gt;" style="ellipse;whiteSpace=wrap;html=1;aspect=fixed;fillColor=#33FF33;strokeColor=#33FF33;" parent="1" vertex="1"><mxGeometry x="40" y="-5" width="20" height="20" as="geometry"/></mxCell><mxCell id="zhIedjfmJsOqNazhnCIG-2" value="&lt;font style=&quot;font-size: 21px;&quot; color=&quot;#ffffff&quot;&gt;C&lt;/font&gt;" style="ellipse;whiteSpace=wrap;html=1;aspect=fixed;fillColor=#66B2FF;strokeColor=#66B2FF;" parent="1" vertex="1"><mxGeometry x="-90" y="80" width="20" height="20" as="geometry"/></mxCell><mxCell id="zhIedjfmJsOqNazhnCIG-3" value="&lt;font style=&quot;font-size: 21px;&quot; color=&quot;#ffffff&quot;&gt;C&lt;/font&gt;" style="ellipse;whiteSpace=wrap;html=1;aspect=fixed;fillColor=#66B2FF;strokeColor=#66B2FF;" parent="1" vertex="1"><mxGeometry x="130" y="90" width="20" height="20" as="geometry"/></mxCell></root></mxGraphModel></diagram></mxfile>